<?xml version="1.0" encoding="UTF-8"?>
<svg version="1.1" xmlns="http://www.w3.org/2000/svg" width="500" height="500">
<path d="M0 0 C165 0 330 0 500 0 C500 165 500 330 500 500 C335 500 170 500 0 500 C0 335 0 170 0 0 Z " fill="#1B1A67" transform="translate(0,0)"/>
<path d="M0 0 C1.084021 0.00523682 2.16804199 0.01047363 3.28491211 0.01586914 C4.45473633 0.0190918 5.62456055 0.02231445 6.82983398 0.02563477 C8.0615332 0.03401367 9.29323242 0.04239258 10.56225586 0.05102539 C12.41560547 0.05779297 12.41560547 0.05779297 14.30639648 0.06469727 C17.37089703 0.07652931 20.43530307 0.09301366 23.49975586 0.11352539 C26.31396408 7.02576491 28.06927486 14.05353127 29.81225586 21.30102539 C31.930504 29.95400719 34.12239284 38.56330819 36.62475586 47.11352539 C38.80665598 54.57114995 40.76526853 62.05663712 42.60791016 69.60473633 C44.07779256 75.56835933 45.71723659 81.46758305 47.43725586 87.36352539 C49.92614405 95.90232641 52.12254896 104.49137179 54.23852539 113.12939453 C56.17004155 120.95146275 58.31353281 128.69777854 60.58374023 136.42797852 C60.8202832 137.23557617 61.05682617 138.04317383 61.30053711 138.87524414 C61.508479 139.57609131 61.7164209 140.27693848 61.93066406 140.99902344 C62.56180381 143.34406906 63.02348927 145.73219247 63.49975586 148.11352539 C68.11975586 148.44352539 72.73975586 148.77352539 77.49975586 149.11352539 C77.49975586 158.35352539 77.49975586 167.59352539 77.49975586 177.11352539 C59.01975586 177.11352539 40.53975586 177.11352539 21.49975586 177.11352539 C21.49975586 167.87352539 21.49975586 158.63352539 21.49975586 149.11352539 C26.11975586 149.11352539 30.73975586 149.11352539 35.49975586 149.11352539 C35.00475586 147.69040039 34.50975586 146.26727539 33.99975586 144.80102539 C33.01928321 141.98216653 32.49975586 140.12843096 32.49975586 137.11352539 C17.97975586 137.11352539 3.45975586 137.11352539 -11.50024414 137.11352539 C-12.49024414 141.07352539 -13.48024414 145.03352539 -14.50024414 149.11352539 C-9.55024414 149.11352539 -4.60024414 149.11352539 0.49975586 149.11352539 C0.49975586 158.35352539 0.49975586 167.59352539 0.49975586 177.11352539 C-20.01594247 178.74974673 -20.01594247 178.74974673 -25.50415039 174.67602539 C-28.94708357 171.50498135 -31.72219656 167.86296588 -34.50024414 164.11352539 C-35.49587454 162.87976015 -36.49714455 161.65052357 -37.50415039 160.42602539 C-44.50024414 151.77589929 -44.50024414 151.77589929 -44.50024414 149.11352539 C-43.84024414 149.11352539 -43.18024414 149.11352539 -42.50024414 149.11352539 C-42.29270508 148.18797852 -42.08516602 147.26243164 -41.87133789 146.30883789 C-39.56233033 136.1827433 -36.93893816 126.15718938 -34.21337891 116.13574219 C-32.2152612 108.78694958 -30.27539137 101.42570102 -28.37524414 94.05102539 C-26.52279976 86.87720099 -24.54031097 79.76469906 -22.39428711 72.67382812 C-20.25776593 65.50413974 -18.5129734 58.24123248 -16.73071289 50.97705078 C-15.12464571 44.47814112 -13.35912298 38.06157398 -11.40356445 31.66040039 C-9.14010451 24.13740309 -7.3102902 16.5043895 -5.46704102 8.86938477 C-5.2253418 7.87745117 -4.98364258 6.88551758 -4.73461914 5.86352539 C-4.5203125 4.97149414 -4.30600586 4.07946289 -4.08520508 3.16040039 C-3.24343056 0.21489224 -3.13340507 0.14227452 0 0 Z " fill="#FDFDFD" transform="translate(248.500244140625,102.886474609375)"/>
<path d="M0 0 C-2 1 -2 1 -3.78417969 0.57861328 C-4.48961914 0.32837402 -5.19505859 0.07813477 -5.921875 -0.1796875 C-6.70046875 -0.44910156 -7.4790625 -0.71851562 -8.28125 -0.99609375 C-9.0959375 -1.28613281 -9.910625 -1.57617188 -10.75 -1.875 C-30.04166356 -8.68931342 -50.82018489 -8.19687437 -69.39453125 0.609375 C-75.35987652 3.88093542 -80.36822219 7.77665402 -85.2578125 12.49609375 C-87 14 -87 14 -89 14 C-89.38285156 14.84498047 -89.38285156 14.84498047 -89.7734375 15.70703125 C-91.1526585 18.28538389 -92.815032 20.39078762 -94.625 22.6875 C-103.2771412 34.51733669 -108.2162367 47.70024749 -111 62 C-111.22429687 63.11375 -111.44859375 64.2275 -111.6796875 65.375 C-118.20483671 103.27449678 -106.4201603 144.18645059 -86.03125 176.1796875 C-85 178 -85 178 -85 180 C-83.68 180.33 -82.36 180.66 -81 181 C-81.66 181 -82.32 181 -83 181 C-77.27944495 189.3267678 -70.97159761 196.71446399 -64 204 C-63.46375 204.75925781 -62.9275 205.51851562 -62.375 206.30078125 C-58.31702805 209.2041 -53.60713317 208.68103462 -48.75 208.75 C-45.2025 208.8325 -41.655 208.915 -38 209 C-38 199.76 -38 190.52 -38 181 C-42.95 181 -47.9 181 -53 181 C-52.67 180.34 -52.34 179.68 -52 179 C-47.05 179.33 -42.1 179.66 -37 180 C-37 189.9 -37 199.8 -37 210 C-46.9 210.495 -46.9 210.495 -57 211 C-49.3675214 216.79774817 -41.86920976 222.32151673 -33.5 227 C-32.85482422 227.36085693 -32.20964844 227.72171387 -31.54492188 228.09350586 C-12.78889441 238.3370705 9.38464797 242.47167565 30.22802734 236.90966797 C40.93489678 233.7129065 50.63717227 228.43362465 59 221 C59.97646484 220.18015625 59.97646484 220.18015625 60.97265625 219.34375 C73.71548254 207.79160529 79.34610284 192.09844549 84 176 C84.33 176 84.66 176 85 176 C85.35608513 198.17901665 71.38079332 222.06510012 56.8125 237.6875 C42.00508378 251.90158769 22.18776356 259.65494745 1.75 259.375 C0.11321289 259.3586853 0.11321289 259.3586853 -1.55664062 259.34204102 C-36.71827448 258.65325975 -65.02063884 239.24618861 -89 215 C-107.96633809 195.17009096 -121.74920682 168.98241609 -130 143 C-130.23799316 142.25975586 -130.47598633 141.51951172 -130.72119141 140.75683594 C-142.34385173 103.9154996 -141.99955883 63.27972589 -124.4609375 28.46484375 C-113.9516899 8.70426089 -95.92270536 -6.17758401 -74.5625 -12.875 C-50.04606176 -19.80451206 -21.24665664 -13.22905036 0 0 Z " fill="#FB5657" transform="translate(287,71)"/>
<path d="M0 0 C0.66 0.33 1.32 0.66 2 1 C1.09121094 1.74830078 1.09121094 1.74830078 0.1640625 2.51171875 C-21.79990412 21.33314861 -35.32916278 50.33193513 -38 79 C-38.14710602 81.89371945 -38.18682391 84.78253581 -38.203125 87.6796875 C-38.20882507 88.49132355 -38.21452515 89.30295959 -38.22039795 90.13919067 C-38.22979185 91.85189537 -38.23635943 93.56461768 -38.24023438 95.27734375 C-38.24984465 97.83367673 -38.2808817 100.38917075 -38.3125 102.9453125 C-38.41880305 119.06790975 -36.02347355 134.06721902 -31.3125 149.5 C-30.96437256 150.65290527 -30.61624512 151.80581055 -30.25756836 152.99365234 C-27.23793032 162.72412525 -23.54752007 171.89417863 -19 181 C-18.65888184 181.70237793 -18.31776367 182.40475586 -17.96630859 183.12841797 C0.80435515 221.60521869 33.71136704 254.63381243 74.60302734 268.90869141 C95.08227569 275.36148983 117.48769078 276.76654999 138.01171875 269.48828125 C140 269 140 269 143 270 C140.52366615 270.96622597 138.04430658 271.92301353 135.5625 272.875 C134.87478516 273.14441406 134.18707031 273.41382813 133.47851562 273.69140625 C108.66544112 283.15499746 79.39808619 279.04006795 55.62670898 268.5090332 C41.35990125 261.82960266 28.96699323 253.19335028 17 243 C15.91713828 242.14523553 14.83389169 241.29095803 13.75 240.4375 C10.85292597 237.86963893 8.39864877 235.15097235 5.8984375 232.203125 C4.62501842 230.72533002 3.31660949 229.27703089 1.9765625 227.859375 C-24.79417991 199.44566284 -40.14260539 161.66911778 -45.64013672 123.47363281 C-45.92743831 121.49877544 -46.25234157 119.52940013 -46.58984375 117.5625 C-49.95734685 88.31333019 -44.49902297 58.6100833 -30 33 C-29.44570312 32.00613281 -28.89140625 31.01226562 -28.3203125 29.98828125 C-22.12579654 19.59987052 -11.01076406 5.50538203 0 0 Z " fill="#F5F5F8" transform="translate(173,67)"/>
<path d="M0 0 C23.51243953 19.5113443 40.35588276 47.58873357 48.11035156 77.07568359 C48.48289062 78.34154297 48.85542969 79.60740234 49.23925781 80.91162109 C54.80489126 101.55193854 54.87729019 127.73856995 48.11035156 148.07568359 C47.79686768 149.08937012 47.79686768 149.08937012 47.47705078 150.12353516 C41.08809631 170.558618 27.87815622 187.78544955 9.77441406 199.32568359 C9.22527344 199.57318359 8.67613281 199.82068359 8.11035156 200.07568359 C7.45035156 199.74568359 6.79035156 199.41568359 6.11035156 199.07568359 C6.75101562 198.57939453 7.39167969 198.08310547 8.05175781 197.57177734 C21.53239242 186.98415523 30.81742879 175.12380634 37.11035156 159.07568359 C37.46742188 158.19138672 37.82449219 157.30708984 38.19238281 156.39599609 C46.2177812 134.69435702 46.57892103 109.37793647 41.11035156 87.07568359 C40.85511719 85.82529297 40.59988281 84.57490234 40.33691406 83.28662109 C35.23914236 59.94911576 23.35404213 38.31200053 8.11035156 20.07568359 C7.26988281 19.07021484 6.42941406 18.06474609 5.56347656 17.02880859 C-10.66396684 -1.77779092 -35.42413713 -18.56536854 -60.57324219 -21.71337891 C-72.15021249 -22.44972331 -83.23344258 -22.76650928 -94.45605469 -19.48291016 C-96.88964844 -18.92431641 -96.88964844 -18.92431641 -99.88964844 -19.92431641 C-63.39781357 -33.7007728 -29.99304643 -24.41888366 0 0 Z " fill="#F73033" transform="translate(311.8896484375,100.92431640625)"/>
<path d="M0 0 C1.92769318 2.89153977 2.54432028 4.61803351 3.32861328 7.93041992 C3.56871124 8.93123093 3.8088092 9.93204193 4.05618286 10.96318054 C4.30834564 12.04138565 4.56050842 13.11959076 4.8203125 14.23046875 C5.21559647 15.88880486 5.21559647 15.88880486 5.61886597 17.5806427 C6.45992776 21.1149402 7.29255411 24.65116432 8.125 28.1875 C8.69345633 30.58281386 9.26245995 32.9779979 9.83203125 35.37304688 C11.22874741 41.24699167 12.61404478 47.12346509 14 53 C4.76 53 -4.48 53 -14 53 C-11.74777668 41.7388834 -11.74777668 41.7388834 -10.44921875 36.93359375 C-10.02298218 35.35070557 -10.02298218 35.35070557 -9.58813477 33.73583984 C-9.14232056 32.10316162 -9.14232056 32.10316162 -8.6875 30.4375 C-8.38062256 29.30521973 -8.07374512 28.17293945 -7.75756836 27.00634766 C-5.29468359 17.9670024 -2.71039528 8.968036 0 0 Z " fill="#21206D" transform="translate(259,158)"/>
<path d="M0 0 C3.3 0 6.6 0 10 0 C10.66 4.95 11.32 9.9 12 15 C12.309375 12.89625 12.61875 10.7925 12.9375 8.625 C13.875 2.25 13.875 2.25 15 0 C17.64 0 20.28 0 23 0 C23.99 3.63 24.98 7.26 26 11 C26.33 11 26.66 11 27 11 C27.66 7.37 28.32 3.74 29 0 C31.97 0 34.94 0 38 0 C37.37768893 2.85477651 36.75223464 5.70880481 36.125 8.5625 C35.95097656 9.36236328 35.77695312 10.16222656 35.59765625 10.98632812 C34.55556397 15.71433941 33.38268277 20.35991592 32 25 C28.7 25 25.4 25 22 25 C21.01 21.04 20.02 17.08 19 13 C18.01 16.96 17.02 20.92 16 25 C12.7 25 9.4 25 6 25 C4.19238433 18.09490812 2.59352273 11.22395335 1.4296875 4.1796875 C1.09351123 1.96554095 1.09351123 1.96554095 0 0 Z " fill="#F7F7FA" transform="translate(230,365)"/>
<path d="M0 0 C3.07452647 1.25803977 3.81011048 2.24860034 6 5 C6.77206755 8.09863353 6.90368307 10.77338281 7 14 C2.05 14 -2.9 14 -8 14 C-7.67 15.65 -7.34 17.3 -7 19 C-5.68 19 -4.36 19 -3 19 C-2.67 18.34 -2.34 17.68 -2 17 C0.97 17 3.94 17 7 17 C5.73090537 20.91304179 4.53743024 22.85610288 1 25 C-2.61930698 26.20643566 -5.19231005 26.32268559 -9 26 C-13.0173768 23.87761225 -15.34587987 22.22552506 -17 18 C-17.62941829 13.61394833 -18.04352395 9.00170394 -15.94921875 4.984375 C-11.38355859 -0.56445091 -6.8264368 -0.88858672 0 0 Z " fill="#F7F7F9" transform="translate(220,365)"/>
<path d="M0 0 C0.66 0 1.32 0 2 0 C4.64 6.6 7.28 13.2 10 20 C10.33 13.4 10.66 6.8 11 0 C13.64 0 16.28 0 19 0 C19 10.89 19 21.78 19 33 C15.37 33 11.74 33 8 33 C7.040062 30.93824636 6.08211576 28.87556531 5.125 26.8125 C4.32449219 25.08966797 4.32449219 25.08966797 3.5078125 23.33203125 C3.01023438 22.23246094 2.51265625 21.13289063 2 20 C1.608125 19.195625 1.21625 18.39125 0.8125 17.5625 C-0.28609203 14.09770976 -0.21435302 10.77880401 -0.125 7.1875 C-0.11597656 6.49462891 -0.10695312 5.80175781 -0.09765625 5.08789062 C-0.07426157 3.39177605 -0.03839641 1.69584129 0 0 Z " fill="#F8F8FA" transform="translate(178,357)"/>
<path d="M0 0 C3.0625 1.25 3.0625 1.25 5 3 C5.8125 5.1875 5.8125 5.1875 6 7 C-2.57142857 7.14285714 -2.57142857 7.14285714 -6 6 C-6.33 6.66 -6.66 7.32 -7 8 C-5.86111328 8.25523437 -5.86111328 8.25523437 -4.69921875 8.515625 C-3.70535156 8.75796875 -2.71148437 9.0003125 -1.6875 9.25 C-0.20830078 9.59804688 -0.20830078 9.59804688 1.30078125 9.953125 C4.39755833 11.1541905 5.42493689 12.10702695 7 15 C7.0625 18.5 7.0625 18.5 6 22 C2.72910211 25.18912545 -0.03038312 26.26594912 -4.5 26.5 C-8.9444303 26.28228298 -11.68139773 25.0697071 -15 22 C-15.875 19.25 -15.875 19.25 -16 17 C-13.36 17 -10.72 17 -8 17 C-7.67 17.66 -7.34 18.32 -7 19 C-4.47266765 19.65555119 -4.47266765 19.65555119 -2 20 C-2.33 19.01 -2.66 18.02 -3 17 C-5.00060057 16.08478813 -5.00060057 16.08478813 -7.375 15.5 C-10.73385957 14.5809635 -12.84530567 13.81194385 -15 11 C-15.5 7.5625 -15.5 7.5625 -15 4 C-11.10991826 -1.05710626 -5.87531581 -0.80074091 0 0 Z " fill="#F4F4F8" transform="translate(286,365)"/>
<path d="M0 0 C9 0 9 0 12.0625 1.3125 C15.08394772 5.50354039 14.72623683 9.99278816 14 15 C13.01 16.485 13.01 16.485 12 18 C11.34 18 10.68 18 10 18 C11.65 21.63 13.3 25.26 15 29 C13.68 29 12.36 29 11 29 C10.32845067 27.71086513 9.66291141 26.41859796 9 25.125 C8.62875 24.40570313 8.2575 23.68640625 7.875 22.9453125 C7 21 7 21 7 19 C5.68 19 4.36 19 3 19 C3 22.3 3 25.6 3 29 C2.01 29 1.02 29 0 29 C0 19.43 0 9.86 0 0 Z " fill="#03A9F4" transform="translate(328,409)"/>
<path d="M0 0 C2.97 0 5.94 0 9 0 C9 10.89 9 21.78 9 33 C6.03 33 3.06 33 0 33 C0 22.11 0 11.22 0 0 Z " fill="#F6F6F8" transform="translate(168,357)"/>
<path d="M0 0 C1.65 0 3.3 0 5 0 C6.00534424 4.2695936 7.00336042 8.54086684 8 12.8125 C8.28617187 14.02744141 8.57234375 15.24238281 8.8671875 16.49414062 C9.13789063 17.65751953 9.40859375 18.82089844 9.6875 20.01953125 C10.06455078 21.62985229 10.06455078 21.62985229 10.44921875 23.27270508 C11 26 11 26 11 29 C9.68 28.67 8.36 28.34 7 28 C6.67 26.68 6.34 25.36 6 24 C3.36 23.67 0.72 23.34 -2 23 C-2.33 24.98 -2.66 26.96 -3 29 C-3.99 29 -4.98 29 -6 29 C-5.39804217 22.72333558 -4.41148741 16.70451588 -3 10.5625 C-2.82210938 9.76134766 -2.64421875 8.96019531 -2.4609375 8.13476562 C-1.13827285 2.2765457 -1.13827285 2.2765457 0 0 Z " fill="#04A4F1" transform="translate(353,409)"/>
<path d="M0 0 C1.32 0 2.64 0 4 0 C4.33 8.58 4.66 17.16 5 26 C7.31 26 9.62 26 12 26 C12 17.42 12 8.84 12 0 C13.32 0 14.64 0 16 0 C16.14547545 4.06212212 16.23413226 8.12357287 16.3125 12.1875 C16.35439453 13.33798828 16.39628906 14.48847656 16.43945312 15.67382812 C16.57761464 25.20697241 16.57761464 25.20697241 13.66796875 28.26171875 C10.36518757 30.413604 8.8647001 30.80514585 5 30 C2.44657678 28.33634944 1.41466947 27.60261619 0 25 C-0.6237285 20.71519032 -0.46974703 16.50574526 -0.3125 12.1875 C-0.28994141 11.01767578 -0.26738281 9.84785156 -0.24414062 8.64257812 C-0.18532091 5.76041231 -0.10317141 2.88086319 0 0 Z " fill="#0695E2" transform="translate(287,409)"/>
<path d="M0 0 C2.09765625 0.34765625 2.09765625 0.34765625 4.16015625 1.97265625 C5.31356122 4.89461551 5.30997338 7.23367168 5.09765625 10.34765625 C3.77765625 10.34765625 2.45765625 10.34765625 1.09765625 10.34765625 C1.09765625 8.03765625 1.09765625 5.72765625 1.09765625 3.34765625 C-0.88234375 3.34765625 -2.86234375 3.34765625 -4.90234375 3.34765625 C-5.85254791 5.58749125 -5.85254791 5.58749125 -5.90234375 8.34765625 C-3.80024995 10.86906596 -3.80024995 10.86906596 -0.90234375 13.34765625 C4.84393 19.05365238 4.84393 19.05365238 5.72265625 23.53515625 C4.93080352 27.09849352 4.14018636 28.31930284 1.09765625 30.34765625 C-2.87721992 30.9154957 -4.96723596 30.97106144 -8.33984375 28.72265625 C-10.2987898 25.74505825 -10.22020281 23.84410588 -9.90234375 20.34765625 C-8.91234375 20.34765625 -7.92234375 20.34765625 -6.90234375 20.34765625 C-6.24234375 22.32765625 -5.58234375 24.30765625 -4.90234375 26.34765625 C-3.25234375 26.34765625 -1.60234375 26.34765625 0.09765625 26.34765625 C1.03933454 24.11505758 1.03933454 24.11505758 1.09765625 21.34765625 C-0.9437568 18.61521557 -0.9437568 18.61521557 -3.77734375 16.16015625 C-9.79860477 10.56658926 -9.79860477 10.56658926 -10.15234375 6.41015625 C-9.90234375 3.34765625 -9.90234375 3.34765625 -8.66796875 1.68359375 C-5.87019535 -0.4333056 -3.39828114 -0.12709019 0 0 Z " fill="#02A7F0" transform="translate(274.90234375,408.65234375)"/>
<path d="M0 0 C4.95 0 9.9 0 15 0 C15 0.99 15 1.98 15 3 C13.02 3 11.04 3 9 3 C9 11.58 9 20.16 9 29 C8.01 29 7.02 29 6 29 C6 20.42 6 11.84 6 3 C4.02 3 2.04 3 0 3 C0 2.01 0 1.02 0 0 Z " fill="#03A4F0" transform="translate(307,409)"/>
<path d="M0 0 C1.98 0 3.96 0 6 0 C7 1 7 1 7.1328125 3.46875 C7.13023437 4.4690625 7.12765625 5.469375 7.125 6.5 C7.12757813 7.5003125 7.13015625 8.500625 7.1328125 9.53125 C7 12 7 12 6 13 C4.02 13 2.04 13 0 13 C0 8.71 0 4.42 0 0 Z " fill="#23238A" transform="translate(331,412)"/>
<path d="M0 0 C0.33 0 0.66 0 1 0 C1.50435694 1.9363704 2.00333874 3.87414146 2.5 5.8125 C2.7784375 6.89144531 3.056875 7.97039062 3.34375 9.08203125 C4 12 4 12 4 15 C1.69 15 -0.62 15 -3 15 C-2.69052329 13.06201479 -2.37731166 11.12462574 -2.0625 9.1875 C-1.88847656 8.10855469 -1.71445312 7.02960938 -1.53515625 5.91796875 C-1 3 -1 3 0 0 Z " fill="#22319B" transform="translate(355,414)"/>
<path d="M0 0 C6.42210386 -0.48468708 6.42210386 -0.48468708 8.9375 1.625 C10.25066255 4.56030453 10.21691118 6.81863606 10 10 C8.68 10 7.36 10 6 10 C6 7.69 6 5.38 6 3 C3.69 2.67 1.38 2.34 -1 2 C-0.67 1.34 -0.34 0.68 0 0 Z " fill="#049DE7" transform="translate(270,409)"/>
<path d="M0 0 C-2.63743301 2.63743301 -4.81908961 2.86055002 -8.4375 3.6875 C-10.16806641 4.09548828 -10.16806641 4.09548828 -11.93359375 4.51171875 C-15 5 -15 5 -18 4 C-15.75438718 3.13237686 -13.50473745 2.2807897 -11.25 1.4375 C-10.61578125 1.19064453 -9.9815625 0.94378906 -9.328125 0.68945312 C-5.88990821 -0.58197079 -3.47831118 -1.46686355 0 0 Z " fill="#C2293B" transform="translate(230,77)"/>
<path d="M0 0 C2.74377251 0.82436215 4.95284784 1.90818755 7.42578125 3.34765625 C8.21597656 3.80269531 9.00617188 4.25773437 9.8203125 4.7265625 C10.70783203 5.25056641 10.70783203 5.25056641 11.61328125 5.78515625 C9.61328125 6.78515625 9.61328125 6.78515625 6.13671875 5.7890625 C4.75130189 5.31615578 3.36856578 4.83533981 1.98828125 4.34765625 C1.281875 4.10466797 0.57546875 3.86167969 -0.15234375 3.61132812 C-1.89945162 3.0092842 -3.64339661 2.39807608 -5.38671875 1.78515625 C-2.38671875 -0.21484375 -2.38671875 -0.21484375 0 0 Z " fill="#D84D5B" transform="translate(275.38671875,65.21484375)"/>
<path d="M0 0 C1.65 0.33 3.3 0.66 5 1 C5.33 2.32 5.66 3.64 6 5 C3.69 5 1.38 5 -1 5 C-0.67 3.35 -0.34 1.7 0 0 Z " fill="#414177" transform="translate(213,370)"/>
<path d="M0 0 C5.94 0.99 5.94 0.99 12 2 C12 2.33 12 2.66 12 3 C10.576875 3.2165625 10.576875 3.2165625 9.125 3.4375 C6.1065506 3.82935399 6.1065506 3.82935399 4 5 C1.375 4.0625 1.375 4.0625 -1 3 C-0.67 2.01 -0.34 1.02 0 0 Z " fill="#4F4E92" transform="translate(280,370)"/>
<path d="M0 0 C0.33 0 0.66 0 1 0 C0.88529863 1.75070517 0.75780972 3.50057536 0.625 5.25 C0.55539062 6.22453125 0.48578125 7.1990625 0.4140625 8.203125 C0.01534751 10.89633189 -0.63507063 12.66963279 -2 15 C-3.08056059 11.02840314 -2.85815614 8.57446843 -1.5625 4.6875 C-1.27503906 3.80449219 -0.98757813 2.92148438 -0.69140625 2.01171875 C-0.46324219 1.34785156 -0.23507812 0.68398437 0 0 Z " fill="#A34172" transform="translate(371,247)"/>
<path d="M0 0 C1.65 0.33 3.3 0.66 5 1 C5 1.99 5 2.98 5 4 C3.35 4 1.7 4 0 4 C0 2.68 0 1.36 0 0 Z " fill="#302F7E" transform="translate(279,381)"/>
<path d="M0 0 C0.33 0 0.66 0 1 0 C0.67 2.64 0.34 5.28 0 8 C-0.99 8 -1.98 8 -3 8 C-1.125 1.125 -1.125 1.125 0 0 Z " fill="#E1505F" transform="translate(368,259)"/>
</svg>
